<svg width="129" height="41" viewBox="0 0 129 41" fill="none" xmlns="http://www.w3.org/2000/svg">
<path d="M62.907 12.258V15.135H59.001V27H55.41V15.135H51.504V12.258H62.907ZM64.4152 21.141C64.4152 19.923 64.6602 18.859 65.1502 17.949C65.6542 17.039 66.3472 16.339 67.2292 15.849C68.1252 15.359 69.1472 15.114 70.2952 15.114C71.7652 15.114 72.9902 15.499 73.9702 16.269C74.9642 17.039 75.6152 18.124 75.9232 19.524H72.1012C71.7792 18.628 71.1562 18.18 70.2322 18.18C69.5742 18.18 69.0492 18.439 68.6572 18.957C68.2652 19.461 68.0692 20.189 68.0692 21.141C68.0692 22.093 68.2652 22.828 68.6572 23.346C69.0492 23.85 69.5742 24.102 70.2322 24.102C71.1562 24.102 71.7792 23.654 72.1012 22.758H75.9232C75.6152 24.13 74.9642 25.208 73.9702 25.992C72.9762 26.776 71.7512 27.168 70.2952 27.168C69.1472 27.168 68.1252 26.923 67.2292 26.433C66.3472 25.943 65.6542 25.243 65.1502 24.333C64.6602 23.423 64.4152 22.359 64.4152 21.141ZM85.4671 15.156C86.8111 15.156 87.8891 15.604 88.7011 16.5C89.5131 17.382 89.9191 18.6 89.9191 20.154V27H86.3491V20.637C86.3491 19.853 86.1461 19.244 85.7401 18.81C85.3341 18.376 84.7881 18.159 84.1021 18.159C83.4161 18.159 82.8701 18.376 82.4641 18.81C82.0581 19.244 81.8551 19.853 81.8551 20.637V27H78.2641V11.46H81.8551V16.857C82.2191 16.339 82.7161 15.926 83.3461 15.618C83.9761 15.31 84.6831 15.156 85.4671 15.156ZM92.1205 21.12C92.1205 19.916 92.3445 18.859 92.7925 17.949C93.2545 17.039 93.8775 16.339 94.6615 15.849C95.4455 15.359 96.3205 15.114 97.2865 15.114C98.0565 15.114 98.7565 15.275 99.3865 15.597C100.03 15.919 100.534 16.353 100.898 16.899V11.46H104.489V27H100.898V25.32C100.562 25.88 100.079 26.328 99.4495 26.664C98.8335 27 98.1125 27.168 97.2865 27.168C96.3205 27.168 95.4455 26.923 94.6615 26.433C93.8775 25.929 93.2545 25.222 92.7925 24.312C92.3445 23.388 92.1205 22.324 92.1205 21.12ZM100.898 21.141C100.898 20.245 100.646 19.538 100.142 19.02C99.6525 18.502 99.0505 18.243 98.3365 18.243C97.6225 18.243 97.0135 18.502 96.5095 19.02C96.0195 19.524 95.7745 20.224 95.7745 21.12C95.7745 22.016 96.0195 22.73 96.5095 23.262C97.0135 23.78 97.6225 24.039 98.3365 24.039C99.0505 24.039 99.6525 23.78 100.142 23.262C100.646 22.744 100.898 22.037 100.898 21.141ZM118.553 20.952C118.553 21.288 118.532 21.638 118.49 22.002H110.363C110.419 22.73 110.65 23.29 111.056 23.682C111.476 24.06 111.987 24.249 112.589 24.249C113.485 24.249 114.108 23.871 114.458 23.115H118.28C118.084 23.885 117.727 24.578 117.209 25.194C116.705 25.81 116.068 26.293 115.298 26.643C114.528 26.993 113.667 27.168 112.715 27.168C111.567 27.168 110.545 26.923 109.649 26.433C108.753 25.943 108.053 25.243 107.549 24.333C107.045 23.423 106.793 22.359 106.793 21.141C106.793 19.923 107.038 18.859 107.528 17.949C108.032 17.039 108.732 16.339 109.628 15.849C110.524 15.359 111.553 15.114 112.715 15.114C113.849 15.114 114.857 15.352 115.739 15.828C116.621 16.304 117.307 16.983 117.797 17.865C118.301 18.747 118.553 19.776 118.553 20.952ZM114.878 20.007C114.878 19.391 114.668 18.901 114.248 18.537C113.828 18.173 113.303 17.991 112.673 17.991C112.071 17.991 111.56 18.166 111.14 18.516C110.734 18.866 110.482 19.363 110.384 20.007H114.878ZM127.399 23.955V27H125.572C124.27 27 123.255 26.685 122.527 26.055C121.799 25.411 121.435 24.368 121.435 22.926V18.264H120.007V15.282H121.435V12.426H125.026V15.282H127.378V18.264H125.026V22.968C125.026 23.318 125.11 23.57 125.278 23.724C125.446 23.878 125.726 23.955 126.118 23.955H127.399Z" fill="white"/>
<path fill-rule="evenodd" clip-rule="evenodd" d="M20.6841 40.138C31.7298 40.138 40.6841 31.1837 40.6841 20.138C40.6841 9.09234 31.7298 0.138031 20.6841 0.138031C9.63837 0.138031 0.684082 9.09234 0.684082 20.138C0.684082 31.1837 9.63837 40.138 20.6841 40.138ZM26.9234 9.45487C27.2271 8.37608 26.1802 7.73816 25.2241 8.41933L11.8772 17.9276C10.8403 18.6663 11.0034 20.138 12.1222 20.138H15.6368V20.1108H22.4866L16.9053 22.0801L14.4448 30.8212C14.1411 31.9 15.1879 32.5379 16.1441 31.8567L29.491 22.3485C30.5279 21.6098 30.3647 20.138 29.246 20.138H23.9162L26.9234 9.45487Z" fill="#38BDF8"/>
</svg>
